<svg width="65" height="60" viewBox="0 0 65 60" fill="none" xmlns="http://www.w3.org/2000/svg">
<g clip-path="url(#clip0)">
<path d="M18.9125 19.875L30.1625 39.4375L20.4125 56.25C19.7549 57.389 18.8093 58.3351 17.6706 58.9933C16.5319 59.6515 15.2402 59.9986 13.925 60H5.99998C4.95041 60.0048 3.91816 59.7325 3.00754 59.2106C2.09692 58.6887 1.34022 57.9356 0.813886 57.0275C0.287556 56.1195 0.0102562 55.0885 0.0100099 54.039C0.00976366 52.9894 0.28658 51.9583 0.812483 51.05L18.9125 19.875Z" fill="url(#paint0_linear)"/>
<path d="M64.1874 51.0625L55.7749 36.525C55.6707 37.1313 55.4027 37.6975 54.9999 38.1625L51.7499 41.8125C53.202 42.1067 54.511 42.8853 55.4626 44.0208C56.4141 45.1564 56.9518 46.5814 56.9874 48.0625C56.9874 51.9375 54.3624 56.0625 48.1499 56.0625C46.7902 56.0735 45.4369 55.8754 44.1374 55.475L44.5624 56.2125C45.2201 57.3515 46.1656 58.2976 47.3043 58.9558C48.443 59.614 49.7347 59.9612 51.0499 59.9625H58.9999C60.0422 59.9623 61.0662 59.6889 61.9699 59.1695C62.8735 58.6502 63.6252 57.903 64.1501 57.0025C64.6749 56.1021 64.9546 55.0797 64.9611 54.0375C64.9677 52.9953 64.7009 51.9695 64.1874 51.0625ZM47.3249 46.6875H46.4624C45.9873 46.723 45.5134 46.6032 45.1122 46.3462C44.711 46.0892 44.404 45.7089 44.2374 45.2625L44.0374 44.9125C43.8372 44.466 43.7789 43.9688 43.8706 43.4881C43.9622 43.0074 44.1994 42.5664 44.5499 42.225L45.5749 40.975C46.2633 40.1154 47.0065 39.3012 47.7999 38.5375C47.0464 38.6821 46.2795 38.745 45.5124 38.725H43.1499C42.8699 38.7615 42.5852 38.7334 42.3177 38.6429C42.0502 38.5523 41.807 38.4017 41.6066 38.2026C41.4063 38.0035 41.2543 37.7612 41.1621 37.4942C41.07 37.2273 41.0401 36.9428 41.0749 36.6625V35C41.0749 34.7297 41.1284 34.4621 41.2322 34.2126C41.336 33.9631 41.4881 33.7365 41.6798 33.546C41.8715 33.3555 42.0989 33.2047 42.3491 33.1024C42.5993 33.0002 42.8672 32.9484 43.1374 32.95H53.7499L40.2874 9.75C37.6728 5.26427 33.3891 1.99567 28.3722 0.658296C23.3553 -0.679079 18.013 0.0234864 13.5125 2.6125L21.2499 15.8875L25.7874 23.75L32.4999 35.4625L41.4999 50.95L42.1749 49.8375C42.8749 48.5875 43.8249 48.5875 45.0124 49.2625C45.8356 49.6285 46.7242 49.8241 47.6249 49.8375C49.4749 49.8375 50.2374 49.2 50.2374 48.3375C50.2249 47.1375 49.2124 46.6875 47.3249 46.6875Z" fill="url(#paint1_linear)"/>
</g>
<defs>
<linearGradient id="paint0_linear" x1="5.45744" y1="59.4394" x2="20.3518" y2="34.6598" gradientUnits="userSpaceOnUse">
<stop offset="0.166667" stop-color="#38C9C4"/>
<stop offset="1" stop-color="#0099FF"/>
</linearGradient>
<linearGradient id="paint1_linear" x1="28.3813" y1="8.18237" x2="53.4628" y2="52.9089" gradientUnits="userSpaceOnUse">
<stop stop-color="#F5693F"/>
<stop offset="1" stop-color="#F53F71"/>
</linearGradient>
<clipPath id="clip0">
<rect width="65" height="60" fill="white"/>
</clipPath>
</defs>
</svg>
